<svg width="101" height="95" viewBox="0 0 101 95" fill="none" xmlns="http://www.w3.org/2000/svg">
<rect width="101" height="95" rx="15" fill="#0D0D0D"/>
<path d="M26.956 78V16.1818H52.7337C57.362 16.1818 61.2357 16.8358 64.3548 18.1438C67.494 19.4518 69.8484 21.283 71.418 23.6374C73.0077 25.9918 73.8026 28.7185 73.8026 31.8175C73.8026 34.1719 73.3095 36.2747 72.3235 38.1261C71.3375 39.9573 69.9792 41.4766 68.2486 42.6839C66.518 43.8913 64.5157 44.7365 62.2418 45.2195V45.8232C64.7371 45.9439 67.0412 46.618 69.1541 47.8455C71.2872 49.073 72.9976 50.7835 74.2855 52.9769C75.5734 55.1502 76.2173 57.726 76.2173 60.7042C76.2173 64.0245 75.3722 66.9927 73.6818 69.6087C71.9915 72.2045 69.5465 74.2571 66.3469 75.7663C63.1474 77.2554 59.2636 78 54.6957 78H26.956ZM41.8974 65.9563H51.1339C54.3737 65.9563 56.7583 65.3426 58.2876 64.1151C59.8371 62.8875 60.6119 61.1771 60.6119 58.9837C60.6119 57.3939 60.2396 56.0256 59.495 54.8785C58.7505 53.7114 57.694 52.8159 56.3256 52.1921C54.9573 51.5482 53.3172 51.2262 51.4055 51.2262H41.8974V65.9563ZM41.8974 41.5973H50.168C51.7979 41.5973 53.2468 41.3256 54.5146 40.7823C55.7823 40.239 56.7683 39.4542 57.4727 38.4279C58.1971 37.4016 58.5593 36.1641 58.5593 34.7152C58.5593 32.6425 57.8248 31.0125 56.3558 29.8253C54.8868 28.638 52.9047 28.0444 50.4094 28.0444H41.8974V41.5973Z" fill="#FFFAFA"/>
</svg>
