<svg width="20" height="21" viewBox="0 0 20 21" fill="none" xmlns="http://www.w3.org/2000/svg">
<circle cx="10" cy="7.16669" r="2" stroke="#222222" stroke-linecap="round"/>
<path d="M11.5455 5.95835C11.702 5.68715 11.9355 5.46848 12.2164 5.32997C12.4972 5.19147 12.8129 5.13936 13.1233 5.18023C13.4338 5.22111 13.7252 5.35313 13.9606 5.55961C14.1961 5.76608 14.365 6.03774 14.4461 6.34022C14.5271 6.64271 14.5166 6.96243 14.416 7.25897C14.3153 7.5555 14.129 7.81553 13.8805 8.00616C13.6321 8.1968 13.3327 8.30948 13.0202 8.32996C12.7077 8.35044 12.3962 8.2778 12.125 8.12123" stroke="#222222"/>
<path d="M8.45453 5.95835C8.29795 5.68715 8.06447 5.46848 7.78361 5.32997C7.50275 5.19147 7.18713 5.13936 6.87666 5.18023C6.56618 5.22111 6.2748 5.35313 6.03936 5.55961C5.80392 5.76608 5.63499 6.03774 5.55394 6.34022C5.47289 6.64271 5.48336 6.96243 5.58402 7.25897C5.68468 7.5555 5.87101 7.81553 6.11945 8.00616C6.36789 8.1968 6.66729 8.30948 6.97977 8.32996C7.29225 8.35044 7.60379 8.2778 7.87499 8.12123" stroke="#222222"/>
<path d="M9.99999 10.9167C13.273 10.9167 14.2087 13.4664 14.4762 14.9243C14.5759 15.4675 14.1356 15.9167 13.5833 15.9167H6.41666C5.86437 15.9167 5.42408 15.4675 5.52376 14.9243C5.79128 13.4664 6.72701 10.9167 9.99999 10.9167Z" stroke="#222222" stroke-linecap="round"/>
<path d="M12.9162 10.083V9.58301H12.9161L12.9162 10.083ZM16.0334 13.1689L16.5155 13.0365L16.5155 13.0363L16.0334 13.1689ZM14.3156 14.25L13.8353 14.389L13.9398 14.75H14.3156V14.25ZM10.9084 10.9893L10.5392 10.652L9.91881 11.3312L10.8262 11.4825L10.9084 10.9893ZM12.9162 10.083V10.583C13.7028 10.583 14.2639 10.948 14.6859 11.4754C15.1191 12.0167 15.3897 12.7141 15.5513 13.3016L16.0334 13.1689L16.5155 13.0363C16.3374 12.3892 16.0213 11.5436 15.4667 10.8506C14.901 10.1437 14.0734 9.58301 12.9162 9.58301V10.083ZM16.0334 13.1689L15.5513 13.3014C15.5836 13.4191 15.555 13.5209 15.4874 13.601C15.4162 13.6854 15.2956 13.75 15.1447 13.75V14.25V14.75C16.0111 14.75 16.7738 13.9763 16.5155 13.0365L16.0334 13.1689ZM15.1447 14.25V13.75H14.3156V14.25V14.75H15.1447V14.25ZM14.3156 14.25L14.7959 14.111C14.3994 12.7409 13.4092 10.8993 10.9906 10.4961L10.9084 10.9893L10.8262 11.4825C12.6952 11.7941 13.4876 13.1876 13.8353 14.389L14.3156 14.25ZM10.9084 10.9893L11.2775 11.3265C11.6824 10.8834 12.2042 10.5831 12.9163 10.583L12.9162 10.083L12.9161 9.58301C11.874 9.58317 11.0975 10.0409 10.5392 10.652L10.9084 10.9893Z" fill="#222222"/>
<path d="M7.08353 10.083L7.08356 9.58301H7.08353V10.083ZM9.09134 10.9893L9.1736 11.4824L10.0809 11.3311L9.46047 10.652L9.09134 10.9893ZM5.68411 14.25V14.75H6.05993L6.1644 14.389L5.68411 14.25ZM3.96634 13.1689L3.48426 13.0363L3.4842 13.0365L3.96634 13.1689ZM7.08353 10.083L7.0835 10.583C7.79556 10.583 8.3173 10.8833 8.72221 11.3265L9.09134 10.9893L9.46047 10.652C8.90221 10.041 8.12586 9.58307 7.08356 9.58301L7.08353 10.083ZM9.09134 10.9893L9.00908 10.4961C6.59069 10.8994 5.60033 12.7409 5.20382 14.111L5.68411 14.25L6.1644 14.389C6.51205 13.1877 7.30464 11.7942 9.1736 11.4824L9.09134 10.9893ZM5.68411 14.25V13.75H4.85501V14.25V14.75H5.68411V14.25ZM4.85501 14.25V13.75C4.70417 13.75 4.58359 13.6854 4.51235 13.601C4.4448 13.5209 4.41616 13.4191 4.44848 13.3014L3.96634 13.1689L3.4842 13.0365C3.22607 13.9763 3.98863 14.75 4.85501 14.75V14.25ZM3.96634 13.1689L4.44842 13.3016C4.61008 12.7141 4.88065 12.0167 5.3138 11.4754C5.73582 10.948 6.29692 10.583 7.08353 10.583V10.083V9.58301C5.92634 9.58301 5.0987 10.1437 4.53301 10.8506C3.97845 11.5436 3.66232 12.3892 3.48426 13.0363L3.96634 13.1689Z" fill="#222222"/>
</svg>
