<svg width="21" height="21" viewBox="0 0 21 21" fill="none" xmlns="http://www.w3.org/2000/svg">
<circle cx="6.66666" cy="7.16669" r="2" stroke="#222222" stroke-linecap="round"/>
<path d="M9.87878 7.62498C10.0887 7.26131 10.4346 6.99595 10.8402 6.88726C11.2458 6.77858 11.678 6.83548 12.0417 7.04544C12.4053 7.2554 12.6707 7.60123 12.7794 8.00685C12.8881 8.41247 12.8312 8.84465 12.6212 9.20831C12.4112 9.57198 12.0654 9.83734 11.6598 9.94603C11.2542 10.0547 10.822 9.99782 10.4583 9.78785C10.0947 9.57789 9.82929 9.23206 9.72061 8.82644C9.61192 8.42083 9.66882 7.98865 9.87878 7.62498L9.87878 7.62498Z" stroke="#222222"/>
<path d="M6.66638 10.917V10.417H6.66636L6.66638 10.917ZM11.1429 14.9238L11.6347 14.8336L11.6347 14.8336L11.1429 14.9238ZM10.2504 15.917V16.417H10.2505L10.2504 15.917ZM2.1908 14.9238L1.69901 14.8336L1.69901 14.8336L2.1908 14.9238ZM6.66638 10.917V11.417C8.1518 11.417 9.06326 11.9863 9.64598 12.692C10.2459 13.4186 10.5248 14.3258 10.6512 15.0141L11.1429 14.9238L11.6347 14.8336C11.4934 14.0639 11.1704 12.9676 10.4171 12.0553C9.64661 11.1222 8.45361 10.417 6.66638 10.417V10.917ZM11.1429 14.9238L10.6512 15.0141C10.671 15.1223 10.6396 15.2135 10.5738 15.2848C10.5042 15.3601 10.3905 15.4169 10.2502 15.417L10.2504 15.917L10.2505 16.417C11.0605 16.4167 11.8001 15.735 11.6347 14.8336L11.1429 14.9238ZM10.2504 15.917V15.417H3.08337V15.917V16.417H10.2504V15.917ZM3.08337 15.917V15.417C2.94308 15.417 2.8294 15.3601 2.75994 15.2849C2.69417 15.2137 2.66269 15.1225 2.68259 15.0141L2.1908 14.9238L1.69901 14.8336C1.5336 15.735 2.27295 16.417 3.08337 16.417V15.917ZM2.1908 14.9238L2.68258 15.0141C2.80894 14.3257 3.08767 13.4186 3.68743 12.692C4.26995 11.9863 5.18115 11.4171 6.66641 11.417L6.66638 10.917L6.66636 10.417C4.87927 10.4171 3.6865 11.1223 2.91622 12.0554C2.16318 12.9677 1.84029 14.064 1.69901 14.8336L2.1908 14.9238Z" fill="#222222"/>
<path d="M11.2496 11.75V11.25H11.2495L11.2496 11.75ZM14.3668 14.835L14.8488 14.7023L14.8488 14.7023L14.3668 14.835ZM11.1431 14.9238L11.6349 14.8336L11.6349 14.8336L11.1431 14.9238ZM9.83356 12.1514L9.56558 11.7292L9.05063 12.0562L9.47222 12.497L9.83356 12.1514ZM11.2496 11.75V12.25C12.0362 12.25 12.5973 12.6149 13.0193 13.142C13.4524 13.683 13.723 14.3802 13.8847 14.9676L14.3668 14.835L14.8488 14.7023C14.6707 14.0551 14.3546 13.2098 13.8 12.517C13.2342 11.8103 12.4066 11.25 11.2496 11.25V11.75ZM14.3668 14.835L13.8847 14.9676C13.9171 15.0853 13.8885 15.1874 13.8208 15.2677C13.7494 15.3524 13.6288 15.417 13.4781 15.417V15.917V16.417C14.345 16.417 15.1074 15.642 14.8488 14.7023L14.3668 14.835ZM13.4781 15.917V15.417H10.2496V15.917V16.417H13.4781V15.917ZM10.2496 15.917V16.417C11.0592 16.417 11.8005 15.7357 11.6349 14.8336L11.1431 14.9238L10.6513 15.0141C10.6712 15.1221 10.6398 15.2132 10.5737 15.2846C10.504 15.3601 10.3899 15.417 10.2496 15.417V15.917ZM11.1431 14.9238L11.6349 14.8336C11.4809 13.9948 11.1092 12.7618 10.1949 11.8058L9.83356 12.1514L9.47222 12.497C10.192 13.2495 10.5129 14.2599 10.6513 15.0141L11.1431 14.9238ZM9.83356 12.1514L10.1015 12.5735C10.4137 12.3753 10.788 12.2501 11.2497 12.25L11.2496 11.75L11.2495 11.25C10.5929 11.2501 10.0335 11.4322 9.56558 11.7292L9.83356 12.1514Z" fill="#222222"/>
<rect x="16.25" y="5.75" width="4.5" height="0.5" rx="0.25" stroke="#222222" stroke-width="0.5" stroke-linecap="round"/>
<rect x="18.75" y="3.75" width="4.5" height="0.5" rx="0.25" transform="rotate(90 18.75 3.75)" stroke="#222222" stroke-width="0.5" stroke-linecap="round"/>
</svg>
