<svg width="20" height="21" viewBox="0 0 20 21" fill="none" xmlns="http://www.w3.org/2000/svg">
<path d="M5.3732 7.97455C5.63516 5.61697 7.62791 3.83337 10 3.83337V3.83337C12.3721 3.83337 14.3648 5.61697 14.6268 7.97455L14.8366 9.86307C14.9443 10.8319 15.2596 11.7661 15.7611 12.6019L16.2428 13.4047C16.5455 13.9093 16.6969 14.1615 16.7246 14.3649C16.7854 14.8106 16.5412 15.242 16.1277 15.4192C15.939 15.5 15.6448 15.5 15.0565 15.5H4.94353C4.35515 15.5 4.06097 15.5 3.87233 15.4192C3.45885 15.242 3.21456 14.8106 3.27537 14.3649C3.30311 14.1615 3.45447 13.9093 3.75718 13.4047L4.23888 12.6019C4.74039 11.7661 5.05572 10.8319 5.16337 9.86307L5.3732 7.97455Z" stroke="#222222"/>
<path d="M7.58519 15.8382C7.72762 16.4584 8.04149 17.0064 8.4781 17.3973C8.91471 17.7881 9.44966 18 10 18C10.5503 18 11.0853 17.7881 11.5219 17.3973C11.9585 17.0064 12.2724 16.4584 12.4148 15.8382" stroke="#222222" stroke-linecap="round"/>
</svg>
