<svg width="20" height="21" viewBox="0 0 20 21" fill="none" xmlns="http://www.w3.org/2000/svg">
<path d="M15 3.00001V3.00001C16.3807 3.00001 17.5 4.11929 17.5 5.50001L17.5 7.28572C17.5 7.48521 17.5 7.58495 17.4719 7.66514C17.4217 7.80876 17.3088 7.92169 17.1651 7.97194C17.085 8 16.9852 8 16.7857 8L12.5 8M15 3.00001V3.00001C13.6193 3.00001 12.5 4.11929 12.5 5.50001L12.5 8M15 3.00001L6.5 3.00001C4.61438 3.00001 3.67157 3.00001 3.08579 3.58579C2.5 4.17158 2.5 5.11439 2.5 7.00001L2.5 18L5 17.1667L7.5 18L10 17.1667L12.5 18L12.5 8" stroke="#222222"/>
<path d="M5.83334 6.33331L9.16668 6.33331" stroke="#222222" stroke-linecap="round"/>
<path d="M6.66666 9.66669H5.83332" stroke="#222222" stroke-linecap="round"/>
<path d="M5.83334 13L8.33334 13" stroke="#222222" stroke-linecap="round"/>
</svg>
