<svg width="20" height="21" viewBox="0 0 20 21" fill="none" xmlns="http://www.w3.org/2000/svg">
<rect x="15" y="8" width="3.33333" height="3.33333" rx="1.66667" transform="rotate(90 15 8)" stroke="#222222"/>
<rect x="15" y="14.6667" width="3.33333" height="3.33333" rx="1.66667" transform="rotate(90 15 14.6667)" stroke="#222222"/>
<rect x="2.5" y="6.33331" width="3.33333" height="3.33333" rx="1.66667" transform="rotate(-90 2.5 6.33331)" stroke="#222222"/>
<path d="M4.16666 7.16669V12.3334C4.16666 14.219 4.16666 15.1618 4.75244 15.7476C5.33823 16.3334 6.28104 16.3334 8.16666 16.3334H11.6667" stroke="#222222"/>
<path d="M4.16666 6.33331V6.33331C4.16666 7.57947 4.16666 8.20254 4.43461 8.66665C4.61014 8.97068 4.86262 9.22316 5.16666 9.3987C5.63076 9.66665 6.25384 9.66665 7.49999 9.66665H11.6667" stroke="#222222"/>
</svg>
